<svg width="238" height="46" viewBox="0 0 238 46" fill="none" xmlns="http://www.w3.org/2000/svg">
<path d="M0.86148 35.061L5.40389 43.2363L9.31358 36.2006L23.9462 9.86457C24.5261 8.82162 26.0259 8.82162 26.6051 9.86457L30.772 17.3648L37.1618 5.86449L36.1398 4.02403C34.932 1.85121 32.6417 0.503712 30.156 0.503712H20.3953C17.9096 0.503712 15.6193 1.85121 14.4115 4.02403L0.86148 28.4111C-0.28716 30.4789 -0.28716 32.9931 0.86148 35.061Z" fill="#B8A567"/>
<path d="M42.4316 4.02032L25.0768 35.3138C24.7744 35.8589 24.2007 36.1968 23.5771 36.1968H13.5751L8.40625 45.5H28.1362C30.6226 45.5 32.9129 44.1525 34.1199 41.9797L51.9482 9.83096C52.5274 8.78731 54.0278 8.78662 54.6077 9.83027L68.0027 33.9371C68.5659 34.9509 67.8331 36.1968 66.6733 36.1968H55.0291C54.4068 36.1968 53.8325 35.8596 53.5307 35.3152L47.8111 25.0219L41.4213 36.5222L44.4535 41.9797C45.6606 44.1525 47.9516 45.5 50.4373 45.5H67.8797C70.3661 45.5 72.6564 44.1525 73.8634 41.9797L77.7099 35.0572C78.8585 32.9894 78.8585 30.4752 77.7099 28.4074L64.1598 4.02032C62.9521 1.8475 60.6617 0.5 58.176 0.5H48.4154C45.9297 0.5 43.6393 1.8475 42.4316 4.02032Z" fill="#B8A567"/>
<path d="M236.42 8.46507L231.784 3.82949C231.379 3.42482 230.83 3.19746 230.257 3.19746H211.657C210.77 3.19746 210.051 3.91571 210.051 4.80222V18.3662H192.187L198.191 10.5468C198.559 10.0677 198.664 9.43989 198.472 8.86696L197.549 6.108C197.386 5.6185 197.052 5.20966 196.612 4.95657C194.542 3.76622 191.165 2.3478 186.829 2.3478C182.497 2.3478 179.128 3.76344 177.064 4.95101C176.624 5.2041 176.291 5.61294 176.128 6.10243L175.201 8.87043C175.009 9.44336 175.114 10.0712 175.481 10.5496L181.475 18.3662H157.016V1.22766H152.688V20.4723C152.688 21.3581 153.406 22.077 154.293 22.077L230.257 22.0791C230.83 22.0791 231.379 21.8517 231.784 21.4471L236.42 16.8115C236.824 16.4061 237.052 15.8575 237.052 15.2846V9.99126C237.052 9.41903 236.824 8.86974 236.42 8.46507ZM179.344 8.53391C179.396 8.32462 179.54 8.1508 179.739 8.05623C181.277 7.32478 183.757 6.45287 186.829 6.45287C189.903 6.45287 192.387 7.32547 193.929 8.05693C194.128 8.15149 194.273 8.32532 194.325 8.5346C194.377 8.7425 194.332 8.96013 194.2 9.13256L187.397 18.0637C187.263 18.2403 187.055 18.3412 186.83 18.3412C186.605 18.3412 186.398 18.2396 186.263 18.063L179.468 9.13117C179.337 8.95874 179.292 8.7418 179.344 8.53391ZM232.794 13.8203C232.794 14.1937 232.645 14.5518 232.38 14.8153L229.306 17.8739C229.043 18.1353 228.687 18.2821 228.316 18.2821H214.383V6.91594H228.303C228.674 6.91594 229.03 7.06334 229.293 7.32478L232.38 10.3966C232.645 10.6601 232.794 11.0182 232.794 11.3916V13.8203ZM114.445 3.19746H118.759V20.4716C118.759 21.3581 118.04 22.0763 117.154 22.0763H94.2923C93.4057 22.0763 92.6875 21.3581 92.6875 20.4716V3.19746H97.0012V18.3662H114.445V3.19746ZM107.971 7.91787H103.475V1.22697H107.971V7.91787ZM149.351 16.4492C149.759 17.173 149.759 18.0575 149.351 18.782L148.047 21.0973C147.705 21.7043 147.062 22.0791 146.366 22.0791H122.869V18.3662H144.803C145.191 18.3662 145.435 17.949 145.245 17.6111L139.371 7.17876C139.274 7.00702 139.092 6.89995 138.894 6.89995H122.869V3.19746H140.757C141.453 3.19746 142.096 3.57223 142.438 4.17923L149.351 16.4492Z" fill="#F7F3E9"/>
<path d="M196.927 37.8329H210.31V34.7013H196.927V30.8973H211.907V27.7698H194.088C193.605 27.7698 193.212 28.1626 193.172 28.6459V43.8973C193.172 44.3785 193.562 44.7686 194.043 44.7686H211.907V41.6425H196.927V37.8329Z" fill="#F7F3E9"/>
<path d="M129.163 27.7662H133.095C133.544 27.7662 133.957 28.0102 134.175 28.4024L143.27 44.7705H139.128L137.789 42.3599H126.363L128.103 39.2269H136.048L131.568 31.1565C131.371 30.8033 130.863 30.8033 130.666 31.1565L123.107 44.7705H118.988L128.083 28.4024C128.3 28.0102 128.714 27.7662 129.163 27.7662Z" fill="#F7F3E9"/>
<path d="M153.913 27.7662H157.845C158.294 27.7662 158.707 28.0102 158.925 28.4024L168.02 44.7705H163.878L162.539 42.3599H151.113L152.853 39.2269H160.798L156.318 31.1565C156.121 30.8033 155.613 30.8033 155.416 31.1565L147.857 44.7705H143.738L152.833 28.4024C153.05 28.0102 153.464 27.7662 153.913 27.7662Z" fill="#F7F3E9"/>
<path d="M233.328 27.7655V41.5958H233.29C233.089 41.5958 232.895 41.5089 232.762 41.3573L221.355 28.4789C220.954 28.0262 220.378 27.7669 219.773 27.7669H219.77L215.589 27.7711C215.108 27.7718 214.718 28.1625 214.719 28.6444L214.748 44.7754L218.449 44.7684V30.9375H218.475C218.677 30.9375 218.87 31.0244 219.004 31.176L230.415 44.0585C230.815 44.5112 231.391 44.7705 231.996 44.7705H231.999L236.174 44.7664C236.656 44.7664 237.045 44.3763 237.045 43.8951V27.7655H233.328Z" fill="#F7F3E9"/>
<path d="M116.756 27.7648H112.564C111.935 27.7648 111.364 28.1368 111.111 28.7132L105.616 41.2196C105.524 41.4296 105.18 41.4289 105.088 41.2189L99.6331 28.7174C99.3807 28.1389 98.8099 27.7648 98.1786 27.7648H93.9358C93.616 27.7648 93.2989 27.867 93.059 28.0791C92.7844 28.3224 92.6321 28.6631 92.6328 29.0268L92.6349 44.767L96.3673 44.7601L96.3694 30.8923H96.5481C96.6732 30.8923 96.7866 30.966 96.8359 31.0807L102.391 43.811C102.643 44.3902 103.214 44.7636 103.845 44.7636H106.812C107.443 44.7636 108.014 44.3902 108.267 43.811L113.821 31.0807C113.872 30.966 113.984 30.8923 114.109 30.8923H114.289V44.7559L118.06 44.7705V29.0295C118.061 28.6659 117.911 28.3252 117.635 28.0812C117.396 27.8677 117.078 27.7648 116.756 27.7648Z" fill="#F7F3E9"/>
<path d="M189.67 31.7461L186.401 28.4775C185.944 28.02 185.337 27.7683 184.69 27.7683H169.88C169.397 27.7683 169.004 28.1611 169.004 28.6443V43.8944C169.004 44.3777 169.397 44.7705 169.88 44.7705H184.69C185.337 44.7705 185.944 44.5188 186.401 44.062L189.67 40.7927C190.127 40.3359 190.379 39.7282 190.379 39.0815V33.4572C190.379 32.8106 190.127 32.2029 189.67 31.7461ZM172.759 41.6389V30.8937H183.37C183.625 30.8937 183.869 30.9945 184.049 31.1746L186.491 33.6172C186.671 33.7972 186.772 34.0413 186.772 34.2958V38.2472C186.772 38.5017 186.671 38.7457 186.491 38.9258L184.059 41.358C183.879 41.538 183.635 41.6389 183.381 41.6389H172.759Z" fill="#F7F3E9"/>
</svg>
